<svg width="235" height="73" viewBox="0 0 235 73" fill="none" xmlns="http://www.w3.org/2000/svg">
<g filter="url(#filter0_d)">
<path d="M31.3135 38.632C31.3135 42.1733 30.0548 44.904 27.5375 46.824C25.0628 48.7013 21.3508 49.64 16.4015 49.64C13.9695 49.64 11.8788 49.4693 10.1295 49.128C8.38017 48.8293 6.63083 48.3173 4.8815 47.592V39.72C6.75883 40.5733 8.7855 41.2773 10.9615 41.832C13.1375 42.3867 15.0575 42.664 16.7215 42.664C18.5562 42.664 19.8788 42.3867 20.6895 41.832C21.5002 41.2773 21.9055 40.552 21.9055 39.656C21.9055 39.0587 21.7348 38.5253 21.3935 38.056C21.0948 37.5867 20.4122 37.0533 19.3455 36.456C18.2788 35.8587 16.6148 35.0907 14.3535 34.152C12.1348 33.2133 10.3215 32.296 8.9135 31.4C7.54817 30.4613 6.52417 29.352 5.8415 28.072C5.15883 26.7493 4.8175 25.1067 4.8175 23.144C4.8175 19.9013 6.07617 17.4693 8.5935 15.848C11.1108 14.2267 14.4602 13.416 18.6415 13.416C20.8175 13.416 22.8868 13.6293 24.8495 14.056C26.8122 14.4827 28.8388 15.1867 30.9295 16.168L28.0495 23.016C26.3428 22.2907 24.7215 21.6933 23.1855 21.224C21.6495 20.712 20.0922 20.456 18.5135 20.456C15.6975 20.456 14.2895 21.224 14.2895 22.76C14.2895 23.3147 14.4602 23.8267 14.8015 24.296C15.1855 24.7227 15.8895 25.192 16.9135 25.704C17.9802 26.216 19.5375 26.8987 21.5855 27.752C23.5908 28.5627 25.3188 29.416 26.7695 30.312C28.2202 31.1653 29.3295 32.2533 30.0975 33.576C30.9082 34.8987 31.3135 36.584 31.3135 38.632ZM53.078 13.352C57.7713 13.352 61.3553 14.376 63.83 16.424C66.3473 18.4293 67.606 21.5227 67.606 25.704V49H60.95L59.094 44.264H58.838C57.3447 46.1413 55.766 47.5067 54.102 48.36C52.438 49.2133 50.1553 49.64 47.254 49.64C44.1393 49.64 41.558 48.744 39.51 46.952C37.462 45.16 36.438 42.3653 36.438 38.568C36.438 34.856 37.7393 32.1253 40.342 30.376C42.9447 28.6267 46.8487 27.6453 52.054 27.432L58.134 27.24V25.704C58.134 23.8693 57.6433 22.5253 56.662 21.672C55.7233 20.8187 54.4007 20.392 52.694 20.392C50.9873 20.392 49.3233 20.648 47.702 21.16C46.0807 21.6293 44.4593 22.2267 42.838 22.952L39.702 16.488C41.5367 15.5493 43.606 14.8027 45.91 14.248C48.214 13.6507 50.6033 13.352 53.078 13.352ZM58.134 32.808L54.422 32.936C51.35 33.0213 49.2167 33.576 48.022 34.6C46.8273 35.624 46.23 36.968 46.23 38.632C46.23 40.0827 46.6567 41.128 47.51 41.768C48.3633 42.3653 49.4727 42.664 50.838 42.664C52.886 42.664 54.614 42.0667 56.022 40.872C57.43 39.6347 58.134 37.9067 58.134 35.688V32.808ZM118.391 13.416C122.359 13.416 125.346 14.44 127.351 16.488C129.399 18.4933 130.423 21.736 130.423 26.216V49H120.887V28.584C120.887 23.5493 119.138 21.032 115.639 21.032C113.122 21.032 111.33 21.928 110.263 23.72C109.196 25.512 108.663 28.0933 108.663 31.464V49H99.127V28.584C99.127 23.5493 97.3777 21.032 93.879 21.032C91.2337 21.032 89.399 22.0347 88.375 24.04C87.3937 26.0027 86.903 28.84 86.903 32.552V49H77.367V14.056H84.663L85.943 18.536H86.455C87.5217 16.744 88.9723 15.4427 90.807 14.632C92.6843 13.8213 94.6257 13.416 96.631 13.416C99.191 13.416 101.346 13.8427 103.095 14.696C104.887 15.5067 106.274 16.7867 107.255 18.536H108.087C109.154 16.744 110.626 15.4427 112.503 14.632C114.423 13.8213 116.386 13.416 118.391 13.416ZM159.698 13.416C163.623 13.416 166.802 14.952 169.234 18.024C171.666 21.0533 172.882 25.5333 172.882 31.464C172.882 37.4373 171.623 41.96 169.106 45.032C166.589 48.104 163.367 49.64 159.442 49.64C156.925 49.64 154.919 49.192 153.426 48.296C151.933 47.3573 150.717 46.312 149.778 45.16H149.266C149.607 46.952 149.778 48.6587 149.778 50.28V64.36H140.242V14.056H147.986L149.33 18.6H149.778C150.717 17.192 151.975 15.976 153.554 14.952C155.133 13.928 157.181 13.416 159.698 13.416ZM156.626 21.032C154.151 21.032 152.402 21.8213 151.378 23.4C150.354 24.936 149.821 27.2613 149.778 30.376V31.4C149.778 34.7707 150.269 37.3733 151.25 39.208C152.274 41 154.109 41.896 156.754 41.896C158.93 41.896 160.53 41 161.554 39.208C162.621 37.3733 163.154 34.7493 163.154 31.336C163.154 24.4667 160.978 21.032 156.626 21.032ZM190.278 49H180.742V0.359997H190.278V49ZM214.642 13.416C219.463 13.416 223.282 14.8027 226.098 17.576C228.914 20.3067 230.322 24.2107 230.322 29.288V33.896H207.794C207.879 36.584 208.669 38.696 210.162 40.232C211.698 41.768 213.81 42.536 216.498 42.536C218.717 42.536 220.743 42.3227 222.578 41.896C224.455 41.4267 226.375 40.7227 228.338 39.784V47.144C226.589 47.9973 224.775 48.616 222.898 49C221.021 49.4267 218.738 49.64 216.05 49.64C212.551 49.64 209.458 49 206.77 47.72C204.082 46.3973 201.97 44.4347 200.434 41.832C198.898 39.1867 198.13 35.8373 198.13 31.784C198.13 27.7307 198.813 24.3387 200.178 21.608C201.586 18.8773 203.527 16.8293 206.002 15.464C208.477 14.0987 211.357 13.416 214.642 13.416ZM214.706 20.2C212.829 20.2 211.293 20.7973 210.098 21.992C208.903 23.1867 208.199 25.0427 207.986 27.56H221.362C221.319 25.4693 220.743 23.72 219.634 22.312C218.567 20.904 216.925 20.2 214.706 20.2Z" fill="#FAFAFA"/>
</g>
<defs>
<filter id="filter0_d" x="0.817505" y="0.360001" width="233.505" height="72" filterUnits="userSpaceOnUse" color-interpolation-filters="sRGB">
<feFlood flood-opacity="0" result="BackgroundImageFix"/>
<feColorMatrix in="SourceAlpha" type="matrix" values="0 0 0 0 0 0 0 0 0 0 0 0 0 0 0 0 0 0 127 0"/>
<feOffset dy="4"/>
<feGaussianBlur stdDeviation="2"/>
<feColorMatrix type="matrix" values="0 0 0 0 0 0 0 0 0 0 0 0 0 0 0 0 0 0 0.5 0"/>
<feBlend mode="normal" in2="BackgroundImageFix" result="effect1_dropShadow"/>
<feBlend mode="normal" in="SourceGraphic" in2="effect1_dropShadow" result="shape"/>
</filter>
</defs>
</svg>
