<?xml version="1.0" standalone="no"?>
<!DOCTYPE svg PUBLIC "-//W3C//DTD SVG 20010904//EN"
 "http://www.w3.org/TR/2001/REC-SVG-20010904/DTD/svg10.dtd">
<svg version="1.0" xmlns="http://www.w3.org/2000/svg"
 width="320.000000pt" height="320.000000pt" viewBox="0 0 320.000000 320.000000"
 preserveAspectRatio="xMidYMid meet">
<metadata>
Created by potrace 1.11, written by Peter Selinger 2001-2013
</metadata>
<g transform="translate(0.000000,320.000000) scale(0.100000,-0.100000)"
fill="#000000" stroke="none">
<path d="M2015 2223 c-61 -8 -152 -36 -212 -64 l-63 -28 -1 -76 c-3 -147 -4
-142 26 -142 14 0 25 4 25 9 0 6 7 8 15 5 8 -4 17 -1 21 5 4 7 3 8 -4 4 -7 -4
-12 -2 -12 5 0 7 -8 5 -20 -6 -11 -10 -20 -13 -20 -8 0 10 22 23 36 22 4 0 10
5 15 12 9 15 37 21 44 9 3 -5 -4 -7 -15 -5 -11 2 -20 0 -20 -4 0 -5 13 -8 29
-7 16 0 27 4 25 8 -3 5 0 8 5 8 6 0 11 5 11 11 0 8 -4 8 -14 0 -11 -9 -15 -8
-20 6 -4 10 -4 14 0 11 3 -4 19 -1 35 8 16 8 31 14 34 14 3 0 6 1 8 1 1 1 13
2 27 3 14 1 30 4 35 7 6 4 20 5 33 4 12 -1 22 3 22 9 0 6 4 5 9 -2 4 -8 12
-14 16 -14 4 0 12 6 16 14 7 10 9 10 9 0 0 -8 9 -11 27 -8 15 3 33 0 41 -7 8
-7 17 -11 19 -9 10 7 19 0 21 -18 4 -43 6 -49 14 -44 4 3 3 15 -4 27 -10 19
-9 20 4 10 8 -7 18 -9 23 -5 4 4 6 0 3 -8 -2 -8 4 -22 15 -30 11 -10 20 -30
21 -48 0 -18 4 -32 7 -32 3 0 5 -12 4 -27 -1 -24 -6 -29 -41 -34 -50 -9 -130
-20 -172 -25 -325 -34 -465 -153 -458 -389 1 -41 5 -78 9 -81 4 -4 2 -13 -5
-21 -9 -11 -8 -13 3 -11 10 2 13 -6 12 -27 -2 -20 1 -25 6 -16 6 9 11 10 15 2
4 -6 5 -11 2 -11 -3 0 5 -11 17 -23 23 -25 127 -100 127 -93 0 3 15 -1 33 -8
17 -8 40 -12 49 -11 9 2 22 -3 29 -11 15 -18 -11 -20 -29 -2 -9 9 -12 9 -12 0
0 -7 5 -12 11 -12 5 0 8 -4 5 -9 -4 -5 4 -7 16 -3 14 3 19 1 14 -6 -3 -6 -2
-14 4 -17 6 -4 9 -1 8 7 -2 7 3 12 10 11 6 -2 12 1 12 5 0 13 33 11 49 -2 12
-9 13 -8 7 2 -6 10 -3 13 10 11 11 -2 25 0 31 4 7 4 22 3 34 -3 19 -11 20 -10
9 9 -6 12 -13 21 -16 21 -3 0 -2 -5 2 -12 4 -7 3 -8 -5 -4 -6 4 -18 2 -26 -4
-11 -10 -15 -10 -15 -1 0 7 -5 9 -11 6 -22 -14 -87 -13 -93 0 -4 11 0 12 17 6
27 -9 68 -5 127 14 12 4 23 -2 33 -15 13 -18 15 -19 21 -5 3 9 10 13 16 10 5
-3 10 -1 10 4 0 14 -13 14 -28 -1 -9 -9 -12 -9 -12 0 0 7 0 15 0 20 0 4 5 8
10 8 6 1 12 3 15 4 3 1 11 3 18 4 6 1 11 7 10 14 -2 7 4 9 14 5 11 -4 14 -3 9
5 -4 7 -1 12 9 12 10 0 13 -5 9 -12 -4 -7 2 -4 14 6 23 20 30 32 12 21 -5 -3
-10 -2 -10 4 0 15 23 26 28 13 2 -7 8 -12 14 -12 6 0 3 9 -7 20 -16 18 -16 20
-2 20 10 0 16 3 16 8 -3 17 2 32 9 32 4 0 8 -11 8 -24 0 -14 -4 -22 -8 -20 -4
3 -8 0 -8 -5 0 -6 4 -11 8 -11 5 0 9 -18 9 -40 0 -22 3 -44 7 -48 4 -4 60 -7
124 -7 l117 0 -2 85 c-2 47 -4 231 -6 410 -3 270 -6 334 -20 375 -36 111 -112
187 -222 222 -48 15 -223 25 -290 16z m290 -643 c-2 -114 -18 -161 -74 -223
-45 -50 -98 -71 -176 -71 -78 0 -122 18 -157 65 -26 34 -34 95 -16 116 10 13
10 15 0 9 -10 -6 -9 2 2 29 9 21 16 39 16 42 0 2 4 2 10 -2 5 -3 7 -12 4 -19
-3 -8 0 -17 7 -22 8 -5 10 -3 4 5 -8 14 29 54 41 43 4 -4 4 -1 0 6 -6 11 -12
10 -27 -4 -10 -9 -19 -12 -19 -6 0 16 36 33 54 26 9 -3 13 -10 10 -15 -9 -15
3 -10 22 8 20 20 54 25 73 9 10 -8 9 -3 -2 15 -17 25 -17 26 7 25 13 -1 30 -6
37 -12 28 -21 42 -28 34 -14 -5 9 -2 10 12 6 11 -3 27 1 39 10 18 15 18 15 -3
5 -26 -13 -36 -14 -29 -3 2 4 -4 8 -14 8 -10 0 -16 -4 -13 -9 3 -5 0 -8 -6 -6
-27 9 -8 24 29 23 22 -1 38 1 36 5 -6 9 51 7 60 -1 4 -4 -2 -6 -13 -4 -12 3
-20 -1 -20 -10 0 -8 4 -14 9 -14 4 0 8 5 8 10 0 6 6 9 13 8 6 -2 11 4 10 12
-2 9 5 16 15 16 16 0 18 -9 17 -66z m-296 4 c-14 -13 -17 -13 -28 0 -11 13
-10 15 8 11 12 -2 21 1 21 7 0 6 3 8 7 4 4 -3 0 -13 -8 -22z m41 16 c0 -5 -4
-10 -10 -10 -5 0 -10 5 -10 10 0 6 5 10 10 10 6 0 10 -4 10 -10z"/>
<path d="M2092 1590 c6 -9 17 -17 26 -17 12 0 12 2 -2 12 -8 7 -14 14 -11 17
3 2 -1 5 -9 5 -11 0 -12 -4 -4 -17z"/>
<path d="M2280 1599 c0 -5 5 -7 10 -4 6 3 10 8 10 11 0 2 -4 4 -10 4 -5 0 -10
-5 -10 -11z"/>
<path d="M2195 1580 c-3 -6 1 -7 9 -4 18 7 21 14 7 14 -6 0 -13 -4 -16 -10z"/>
<path d="M2050 1559 c0 -5 5 -7 10 -4 6 3 10 8 10 11 0 2 -4 4 -10 4 -5 0 -10
-5 -10 -11z"/>
<path d="M1890 1501 c0 -6 4 -13 10 -16 6 -3 7 1 4 9 -7 18 -14 21 -14 7z"/>
<path d="M610 2202 c-5 -2 -5 -13 1 -29 5 -14 7 -35 4 -47 -5 -17 -4 -18 4 -6
9 13 11 12 12 -5 1 -11 1 -23 0 -27 0 -5 4 -8 10 -8 7 0 9 -10 7 -25 -3 -13
-1 -22 3 -19 10 6 41 -65 33 -77 -3 -5 0 -9 6 -9 7 0 9 -7 6 -16 -3 -8 -2 -12
3 -9 5 3 12 1 16 -5 3 -5 1 -10 -6 -10 -8 0 -8 -5 3 -17 27 -33 48 -99 35
-112 -9 -9 -8 -11 7 -5 16 6 18 4 13 -9 -3 -9 -2 -17 2 -17 16 0 30 -57 18
-70 -9 -9 -9 -11 1 -8 14 3 21 -5 45 -59 13 -28 13 -33 -2 -49 -15 -17 -15
-17 0 -6 13 10 18 10 22 -2 3 -8 1 -17 -6 -20 -7 -2 -5 -5 5 -5 21 -1 28 -21
16 -43 -7 -14 -5 -16 7 -12 9 4 15 3 14 -2 -1 -5 5 -25 14 -44 11 -26 12 -37
4 -42 -8 -5 -6 -8 6 -8 9 0 17 -5 17 -11 0 -5 -4 -8 -8 -5 -5 3 -9 -1 -9 -8 0
-8 7 -12 15 -8 10 3 13 1 8 -6 -4 -7 -3 -12 2 -12 15 0 21 -53 9 -70 -10 -13
-10 -13 5 -2 16 13 23 4 34 -40 1 -5 3 -11 4 -15 1 -5 2 -11 1 -15 0 -5 4 -8
9 -8 12 0 14 -36 3 -43 -5 -2 -3 -2 4 -1 7 2 15 -1 18 -6 4 -6 2 -10 -3 -10
-6 0 -8 -9 -5 -20 3 -11 0 -20 -6 -20 -6 0 -10 -3 -8 -8 5 -16 -57 -153 -86
-188 -53 -64 -153 -91 -243 -65 -30 8 -30 8 -29 -28 1 -20 -2 -41 -7 -48 -5
-7 -5 -14 2 -18 8 -5 8 -10 0 -20 -7 -8 -7 -15 -1 -19 5 -3 7 -19 5 -35 -5
-32 13 -43 74 -44 17 0 32 -5 32 -10 0 -5 7 -4 15 3 8 7 15 8 15 2 0 -5 -10
-16 -22 -24 -17 -11 -19 -16 -8 -23 8 -5 11 -4 7 2 -4 6 0 13 8 17 10 3 15 -1
16 -12 0 -12 3 -10 10 7 7 18 13 21 21 13 8 -8 17 -8 30 -1 12 7 18 6 18 -1 0
-6 4 -8 10 -5 6 4 5 11 -3 19 -6 8 -14 10 -17 6 -7 -10 -40 -8 -40 3 0 5 6 7
14 4 8 -3 17 -3 20 1 11 11 45 12 51 2 3 -6 -2 -7 -12 -4 -15 5 -16 4 -3 -5
23 -16 33 -13 27 9 -3 11 0 23 5 27 7 3 8 1 4 -5 -4 -7 -2 -12 3 -12 6 0 11
-8 11 -17 0 -15 2 -16 10 -3 13 20 13 33 0 25 -5 -3 -10 -1 -10 5 0 7 5 10 12
8 6 -2 20 3 29 11 39 35 50 42 58 36 5 -3 15 1 23 8 7 8 19 12 26 11 7 -1 8 0
3 2 -11 6 -2 44 11 44 5 0 6 6 2 13 -6 10 -4 10 7 0 7 -7 18 -13 23 -13 6 0 5
4 -3 9 -18 12 -6 45 14 37 8 -3 15 -1 15 4 0 6 -5 10 -11 10 -5 0 -7 5 -4 10
4 6 11 8 16 5 5 -4 6 2 2 11 -5 14 -3 16 11 11 9 -4 15 -3 11 2 -3 5 -2 11 2
14 5 2 2 2 -5 1 -9 -3 -8 4 3 26 9 17 18 30 21 30 3 0 2 -5 -2 -12 -4 -6 -3
-8 4 -5 5 4 8 16 5 27 -3 12 0 20 6 20 7 0 10 4 6 10 -3 5 3 18 15 30 11 11
15 20 10 20 -5 0 -10 5 -10 11 0 5 4 7 10 4 5 -3 7 0 4 8 -3 9 7 27 23 43 15
15 19 21 9 13 -18 -13 -19 -12 -12 6 5 11 11 28 13 38 3 9 9 17 14 17 5 0 5 7
2 17 -5 12 -3 14 7 8 9 -6 12 -4 8 6 -8 22 10 62 24 53 9 -6 9 -3 -1 9 -11 14
-11 18 2 23 9 3 13 12 10 20 -3 8 1 22 8 30 8 9 14 22 14 28 1 25 27 86 36 81
5 -4 6 2 2 11 -4 11 -2 15 4 11 6 -4 8 3 5 20 -3 17 -1 24 6 19 6 -4 10 1 9
12 -2 29 24 83 37 75 6 -4 4 2 -4 12 -9 11 -10 16 -2 11 8 -5 12 1 12 18 0 14
5 26 11 26 5 0 8 4 5 8 -2 4 4 26 14 47 10 22 19 34 19 26 1 -8 4 -11 7 -8 4
4 2 12 -4 20 -8 10 -7 20 3 41 8 16 22 47 29 70 8 22 19 40 24 39 6 -1 9 5 8
15 -4 23 14 73 24 67 4 -3 6 3 3 14 -3 10 1 22 8 26 8 6 10 4 4 -5 -5 -9 -4
-11 4 -6 9 6 9 11 0 22 -10 13 -6 18 13 15 4 0 4 7 1 16 -5 12 -3 14 8 8 11
-6 11 -5 2 5 -12 13 -6 43 7 35 5 -3 7 3 6 12 -2 10 3 35 10 55 7 21 10 39 6
41 -4 1 -58 2 -120 2 -77 -1 -116 -5 -121 -13 -4 -7 -18 -45 -31 -85 -13 -40
-26 -74 -29 -77 -3 -3 -6 -9 -6 -15 0 -14 -77 -239 -84 -245 -3 -3 -8 -14 -9
-25 -2 -11 -26 -84 -53 -161 -26 -78 -54 -162 -61 -188 -7 -25 -16 -46 -21
-46 -4 0 -7 6 -6 13 1 6 0 19 -3 27 -15 41 -50 154 -53 169 -2 9 -15 48 -29
86 -13 39 -59 176 -101 305 -42 129 -81 239 -86 244 -8 9 -236 15 -259 8z
m460 -1475 c0 -2 -10 -12 -21 -23 -22 -19 -22 -19 -8 4 12 19 29 30 29 19z
m-279 -140 c-10 -9 -11 -8 -5 6 3 10 9 15 12 12 3 -3 0 -11 -7 -18z"/>
<path d="M2000 2016 c-5 -5 -10 -15 -10 -20 0 -6 6 -4 13 4 7 8 21 17 31 18
18 3 18 2 6 -15 -8 -10 -10 -15 -6 -11 5 4 16 2 25 -5 14 -10 14 -10 4 4 -8
10 -9 19 -3 25 7 7 0 10 -20 10 -16 0 -34 -4 -40 -10z"/>
<path d="M2086 2019 c2 -4 -2 -10 -8 -13 -7 -3 -2 -3 12 1 23 5 24 5 10 -13
-14 -17 -13 -18 1 -7 9 7 19 9 24 5 4 -4 2 2 -5 14 -7 11 -19 21 -26 21 -7 0
-11 -4 -8 -8z"/>
<path d="M2130 2020 c0 -3 9 -11 20 -18 13 -8 20 -8 20 -1 0 5 4 8 9 4 5 -3
13 0 17 6 4 7 3 9 -4 5 -6 -3 -13 -2 -17 3 -6 10 -45 11 -45 1z"/>
<path d="M1944 2011 c-3 -3 -11 -6 -17 -6 -6 0 -13 -13 -14 -30 -1 -20 1 -25
6 -16 5 8 6 21 3 30 -5 14 -3 14 11 3 9 -8 24 -12 34 -9 14 4 13 5 -5 6 -13 0
-20 5 -17 11 4 6 10 8 15 5 5 -3 11 -2 14 3 6 10 -21 12 -30 3z"/>
<path d="M656 1997 c3 -10 9 -15 12 -12 3 3 0 11 -7 18 -10 9 -11 8 -5 -6z"/>
<path d="M2180 1986 c0 -2 7 -7 16 -10 8 -3 12 -2 9 4 -6 10 -25 14 -25 6z"/>
<path d="M2235 1940 c-3 -6 1 -7 9 -4 18 7 21 14 7 14 -6 0 -13 -4 -16 -10z"/>
<path d="M2266 1923 c-6 -14 -5 -15 5 -6 7 7 10 15 7 18 -3 3 -9 -2 -12 -12z"/>
<path d="M1570 1859 c0 -5 5 -7 10 -4 6 3 10 8 10 11 0 2 -4 4 -10 4 -5 0 -10
-5 -10 -11z"/>
<path d="M1547 1779 c7 -7 15 -10 18 -7 3 3 -2 9 -12 12 -14 6 -15 5 -6 -5z"/>
<path d="M1530 1760 c0 -5 5 -10 11 -10 5 0 7 5 4 10 -3 6 -8 10 -11 10 -2 0
-4 -4 -4 -10z"/>
<path d="M877 1427 c-3 -8 1 -14 8 -14 7 0 11 6 8 14 -3 7 -6 13 -8 13 -2 0
-5 -6 -8 -13z"/>
<path d="M1654 1202 c4 -3 14 -7 22 -8 9 -1 13 0 10 4 -4 3 -14 7 -22 8 -9 1
-13 0 -10 -4z"/>
<path d="M1695 1170 c3 -6 12 -10 20 -10 8 0 20 -9 28 -20 8 -11 17 -17 20
-13 4 3 7 -1 7 -10 0 -10 8 -15 20 -14 11 1 20 2 20 3 0 2 -19 15 -42 31 -49
33 -82 48 -73 33z"/>
<path d="M2269 1163 c-13 -16 -12 -17 4 -4 16 13 21 21 13 21 -2 0 -10 -8 -17
-17z"/>
<path d="M2210 1129 c0 -5 -4 -8 -9 -4 -5 3 -12 1 -15 -4 -4 -5 2 -8 11 -7 15
3 33 26 19 26 -3 0 -6 -5 -6 -11z"/>
<path d="M1817 1095 c-4 -10 -1 -12 10 -8 9 4 19 -1 25 -11 10 -17 28 -13 28
7 0 7 -4 6 -10 -3 -6 -9 -10 -10 -10 -3 0 20 -37 35 -43 18z"/>
<path d="M2340 1095 c-7 -9 -10 -18 -6 -22 3 -3 6 -1 6 6 0 7 5 9 10 6 6 -4 8
-10 5 -15 -3 -5 -1 -11 4 -14 10 -7 9 13 -2 31 -5 8 -1 11 13 10 11 -1 20 -5
20 -10 0 -4 5 -5 11 -2 14 9 7 15 -24 20 -15 3 -30 -1 -37 -10z"/>
<path d="M2422 1101 c0 -4 -1 -8 -2 -11 -7 -19 -7 -39 1 -34 5 3 7 9 4 14 -3
4 3 14 12 21 15 12 16 12 9 -6 -5 -15 -4 -17 5 -8 6 6 19 9 27 5 14 -5 14 -4
2 9 -13 14 -59 22 -58 10z"/>
<path d="M2500 1105 c0 -5 4 -16 9 -23 6 -11 10 -10 15 4 3 9 4 19 1 22 -3 3
-5 -1 -5 -9 0 -11 -2 -11 -10 1 -5 8 -10 11 -10 5z"/>
<path d="M1776 1078 c3 -5 10 -6 15 -3 13 9 11 12 -6 12 -8 0 -12 -4 -9 -9z"/>
<path d="M1820 1066 c0 -2 7 -7 16 -10 8 -3 12 -2 9 4 -6 10 -25 14 -25 6z"/>
<path d="M1875 1040 c3 -5 8 -10 11 -10 2 0 4 5 4 10 0 6 -5 10 -11 10 -5 0
-7 -4 -4 -10z"/>
<path d="M999 653 c-12 -16 -12 -17 2 -6 9 7 19 10 22 6 4 -3 7 -1 7 5 0 17
-16 15 -31 -5z"/>
<path d="M970 641 c0 -6 4 -13 10 -16 6 -3 7 1 4 9 -7 18 -14 21 -14 7z"/>
<path d="M663 593 c1 -18 4 -20 21 -11 15 8 22 7 32 -6 10 -14 12 -15 17 -2 7
19 -1 24 -33 21 -14 -1 -28 3 -32 9 -4 6 -6 1 -5 -11z"/>
</g>
</svg>
